# xmcd
#
# Track frame offsets:
# 150
# 26630
# 46451
# 66707
# 81695
# 94773
# 106534
# 120086
# 134247
# 151533
# 168411
# 182449
# 195027
# 210949
#
# Disc length: 3013 seconds
#
#
# Revision: 0
# Processed by: cddbd v1.5.2PL0 Copyright (c) Steve Scherf et al.
# Submitted via: FreeRIP 2.944 
#
DISCID=af0bc30e
DTITLE=Paisagem do Sertão - Clube da Viola
DYEAR=2009
DGENRE=Country
TTITLE0=Luar do Sertão
TTITLE1=João Boiadeiro
TTITLE2=Cabocla Tereza
TTITLE3=Hino de Poços de Caldas
TTITLE4=Encantos da Natureza
TTITLE5=Cavalo Preto
TTITLE6=Pé de Ipê
TTITLE7=Fazenda São Francisco
TTITLE8=Jeitão de Caboclo
TTITLE9=O Céu Chorou Por Mim
TTITLE10=Ainda Ontem Chorei de Saudade
TTITLE11=Colcha de Retalho
TTITLE12=Mocinhas da Cidade
TTITLE13=Tchau Amor
EXTD=Orquestra de Violeiros
EXTT0=
EXTT1=
EXTT2=
EXTT3=
EXTT4=
EXTT5=
EXTT6=
EXTT7=
EXTT8=
EXTT9=
EXTT10=
EXTT11=
EXTT12=
EXTT13=
PLAYORDER=
